<mxfile host="app.diagrams.net" modified="2024-08-13T11:17:16.941Z" agent="Mozilla/5.0 (Windows NT 10.0; Win64; x64) AppleWebKit/537.36 (KHTML, like Gecko) Chrome/127.0.0.0 Safari/537.36" etag="kky9GTiFZ65roHUfodyg" version="24.6.5" type="device">
  <diagram name="Trang-1" id="QNwzoLnvFDmw-O8o4l-O">
    <mxGraphModel dx="1761" dy="1757" grid="1" gridSize="10" guides="1" tooltips="1" connect="1" arrows="1" fold="1" page="1" pageScale="1" pageWidth="827" pageHeight="1169" math="0" shadow="0">
      <root>
        <mxCell id="0" />
        <mxCell id="1" parent="0" />
        <mxCell id="sS0rDAeBFz1sruWQkqxE-5" style="edgeStyle=orthogonalEdgeStyle;rounded=0;orthogonalLoop=1;jettySize=auto;html=1;exitX=0.5;exitY=1;exitDx=0;exitDy=0;entryX=0.5;entryY=0;entryDx=0;entryDy=0;endArrow=none;endFill=0;" edge="1" parent="1" source="sS0rDAeBFz1sruWQkqxE-1" target="sS0rDAeBFz1sruWQkqxE-3">
          <mxGeometry relative="1" as="geometry" />
        </mxCell>
        <mxCell id="sS0rDAeBFz1sruWQkqxE-1" value="Company" style="whiteSpace=wrap;html=1;align=center;fillColor=#f8cecc;strokeColor=#b85450;" vertex="1" parent="1">
          <mxGeometry x="350" y="20" width="100" height="40" as="geometry" />
        </mxCell>
        <mxCell id="sS0rDAeBFz1sruWQkqxE-6" style="edgeStyle=orthogonalEdgeStyle;rounded=0;orthogonalLoop=1;jettySize=auto;html=1;exitX=0.5;exitY=1;exitDx=0;exitDy=0;entryX=0.5;entryY=0;entryDx=0;entryDy=0;endArrow=ERmany;endFill=0;" edge="1" parent="1" source="sS0rDAeBFz1sruWQkqxE-3" target="sS0rDAeBFz1sruWQkqxE-4">
          <mxGeometry relative="1" as="geometry" />
        </mxCell>
        <mxCell id="sS0rDAeBFz1sruWQkqxE-3" value="Own" style="shape=rhombus;perimeter=rhombusPerimeter;whiteSpace=wrap;html=1;align=center;fillColor=#d5e8d4;strokeColor=#82b366;" vertex="1" parent="1">
          <mxGeometry x="340" y="90" width="120" height="60" as="geometry" />
        </mxCell>
        <mxCell id="sS0rDAeBFz1sruWQkqxE-25" style="edgeStyle=orthogonalEdgeStyle;rounded=0;orthogonalLoop=1;jettySize=auto;html=1;exitX=1;exitY=0.75;exitDx=0;exitDy=0;entryX=0;entryY=0;entryDx=0;entryDy=0;endArrow=none;endFill=0;curved=1;" edge="1" parent="1" source="sS0rDAeBFz1sruWQkqxE-4" target="sS0rDAeBFz1sruWQkqxE-23">
          <mxGeometry relative="1" as="geometry" />
        </mxCell>
        <mxCell id="sS0rDAeBFz1sruWQkqxE-41" style="edgeStyle=orthogonalEdgeStyle;rounded=0;orthogonalLoop=1;jettySize=auto;html=1;exitX=1;exitY=0.5;exitDx=0;exitDy=0;curved=1;endArrow=none;endFill=0;startArrow=ERoneToMany;startFill=0;" edge="1" parent="1" source="sS0rDAeBFz1sruWQkqxE-4" target="sS0rDAeBFz1sruWQkqxE-40">
          <mxGeometry relative="1" as="geometry" />
        </mxCell>
        <mxCell id="sS0rDAeBFz1sruWQkqxE-4" value="Electronic item" style="whiteSpace=wrap;html=1;align=center;fillColor=#008a00;fontColor=#ffffff;strokeColor=#005700;" vertex="1" parent="1">
          <mxGeometry x="350" y="190" width="100" height="40" as="geometry" />
        </mxCell>
        <mxCell id="sS0rDAeBFz1sruWQkqxE-12" style="edgeStyle=orthogonalEdgeStyle;rounded=0;orthogonalLoop=1;jettySize=auto;html=1;exitX=0;exitY=1;exitDx=0;exitDy=0;entryX=1;entryY=0.25;entryDx=0;entryDy=0;endArrow=none;endFill=0;curved=1;" edge="1" parent="1" source="sS0rDAeBFz1sruWQkqxE-7" target="sS0rDAeBFz1sruWQkqxE-4">
          <mxGeometry relative="1" as="geometry" />
        </mxCell>
        <mxCell id="sS0rDAeBFz1sruWQkqxE-7" value="Item_code" style="ellipse;whiteSpace=wrap;html=1;align=center;fontStyle=4;" vertex="1" parent="1">
          <mxGeometry x="490" y="100" width="100" height="40" as="geometry" />
        </mxCell>
        <mxCell id="sS0rDAeBFz1sruWQkqxE-10" style="edgeStyle=orthogonalEdgeStyle;rounded=0;orthogonalLoop=1;jettySize=auto;html=1;exitX=1;exitY=1;exitDx=0;exitDy=0;entryX=0;entryY=0.25;entryDx=0;entryDy=0;endArrow=none;endFill=0;curved=1;" edge="1" parent="1" source="sS0rDAeBFz1sruWQkqxE-8" target="sS0rDAeBFz1sruWQkqxE-4">
          <mxGeometry relative="1" as="geometry" />
        </mxCell>
        <mxCell id="sS0rDAeBFz1sruWQkqxE-8" value="Item_name" style="ellipse;whiteSpace=wrap;html=1;align=center;" vertex="1" parent="1">
          <mxGeometry x="200" y="100" width="100" height="40" as="geometry" />
        </mxCell>
        <mxCell id="sS0rDAeBFz1sruWQkqxE-11" style="edgeStyle=orthogonalEdgeStyle;rounded=0;orthogonalLoop=1;jettySize=auto;html=1;exitX=1;exitY=1;exitDx=0;exitDy=0;curved=1;endArrow=none;endFill=0;" edge="1" parent="1" source="sS0rDAeBFz1sruWQkqxE-9" target="sS0rDAeBFz1sruWQkqxE-4">
          <mxGeometry relative="1" as="geometry" />
        </mxCell>
        <mxCell id="sS0rDAeBFz1sruWQkqxE-9" value="item_description" style="ellipse;whiteSpace=wrap;html=1;align=center;" vertex="1" parent="1">
          <mxGeometry x="200" y="160" width="100" height="40" as="geometry" />
        </mxCell>
        <mxCell id="sS0rDAeBFz1sruWQkqxE-13" value="Suppliers" style="whiteSpace=wrap;html=1;align=center;fillColor=#008a00;fontColor=#ffffff;strokeColor=#005700;" vertex="1" parent="1">
          <mxGeometry x="590" y="200" width="100" height="40" as="geometry" />
        </mxCell>
        <mxCell id="sS0rDAeBFz1sruWQkqxE-15" value="Name" style="ellipse;whiteSpace=wrap;html=1;align=center;" vertex="1" parent="1">
          <mxGeometry x="727" y="120" width="100" height="40" as="geometry" />
        </mxCell>
        <mxCell id="sS0rDAeBFz1sruWQkqxE-20" style="edgeStyle=orthogonalEdgeStyle;rounded=0;orthogonalLoop=1;jettySize=auto;html=1;exitX=0;exitY=0.5;exitDx=0;exitDy=0;entryX=1;entryY=0.25;entryDx=0;entryDy=0;endArrow=none;endFill=0;curved=1;" edge="1" parent="1" source="sS0rDAeBFz1sruWQkqxE-16" target="sS0rDAeBFz1sruWQkqxE-13">
          <mxGeometry relative="1" as="geometry" />
        </mxCell>
        <mxCell id="sS0rDAeBFz1sruWQkqxE-16" value="Address" style="ellipse;whiteSpace=wrap;html=1;align=center;" vertex="1" parent="1">
          <mxGeometry x="727" y="180" width="100" height="40" as="geometry" />
        </mxCell>
        <mxCell id="sS0rDAeBFz1sruWQkqxE-21" style="edgeStyle=orthogonalEdgeStyle;rounded=0;orthogonalLoop=1;jettySize=auto;html=1;exitX=0;exitY=0.5;exitDx=0;exitDy=0;endArrow=none;endFill=0;curved=1;" edge="1" parent="1" source="sS0rDAeBFz1sruWQkqxE-17" target="sS0rDAeBFz1sruWQkqxE-13">
          <mxGeometry relative="1" as="geometry" />
        </mxCell>
        <mxCell id="sS0rDAeBFz1sruWQkqxE-17" value="Phone" style="ellipse;whiteSpace=wrap;html=1;align=center;" vertex="1" parent="1">
          <mxGeometry x="727" y="240" width="100" height="40" as="geometry" />
        </mxCell>
        <mxCell id="sS0rDAeBFz1sruWQkqxE-22" style="edgeStyle=orthogonalEdgeStyle;rounded=0;orthogonalLoop=1;jettySize=auto;html=1;exitX=0;exitY=0.5;exitDx=0;exitDy=0;entryX=0.75;entryY=1;entryDx=0;entryDy=0;endArrow=none;endFill=0;curved=1;" edge="1" parent="1" source="sS0rDAeBFz1sruWQkqxE-18" target="sS0rDAeBFz1sruWQkqxE-13">
          <mxGeometry relative="1" as="geometry" />
        </mxCell>
        <mxCell id="sS0rDAeBFz1sruWQkqxE-18" value="Fax" style="ellipse;whiteSpace=wrap;html=1;align=center;" vertex="1" parent="1">
          <mxGeometry x="727" y="300" width="100" height="40" as="geometry" />
        </mxCell>
        <mxCell id="sS0rDAeBFz1sruWQkqxE-19" style="edgeStyle=orthogonalEdgeStyle;rounded=0;orthogonalLoop=1;jettySize=auto;html=1;exitX=0;exitY=0.5;exitDx=0;exitDy=0;entryX=0.831;entryY=0.045;entryDx=0;entryDy=0;entryPerimeter=0;curved=1;endArrow=none;endFill=0;" edge="1" parent="1" source="sS0rDAeBFz1sruWQkqxE-15" target="sS0rDAeBFz1sruWQkqxE-13">
          <mxGeometry relative="1" as="geometry" />
        </mxCell>
        <mxCell id="sS0rDAeBFz1sruWQkqxE-23" value="Offer" style="shape=rhombus;perimeter=rhombusPerimeter;whiteSpace=wrap;html=1;align=center;fillColor=#d5e8d4;strokeColor=#82b366;" vertex="1" parent="1">
          <mxGeometry x="460" y="240" width="120" height="60" as="geometry" />
        </mxCell>
        <mxCell id="sS0rDAeBFz1sruWQkqxE-26" style="edgeStyle=orthogonalEdgeStyle;rounded=0;orthogonalLoop=1;jettySize=auto;html=1;exitX=1;exitY=0;exitDx=0;exitDy=0;entryX=0.384;entryY=1.025;entryDx=0;entryDy=0;entryPerimeter=0;curved=1;endArrow=ERmany;endFill=0;" edge="1" parent="1" source="sS0rDAeBFz1sruWQkqxE-23" target="sS0rDAeBFz1sruWQkqxE-13">
          <mxGeometry relative="1" as="geometry" />
        </mxCell>
        <mxCell id="sS0rDAeBFz1sruWQkqxE-27" value="Store" style="shape=rhombus;perimeter=rhombusPerimeter;whiteSpace=wrap;html=1;align=center;fillColor=#d5e8d4;strokeColor=#82b366;" vertex="1" parent="1">
          <mxGeometry x="190" y="240" width="120" height="60" as="geometry" />
        </mxCell>
        <mxCell id="sS0rDAeBFz1sruWQkqxE-33" style="edgeStyle=orthogonalEdgeStyle;rounded=0;orthogonalLoop=1;jettySize=auto;html=1;exitX=1;exitY=1;exitDx=0;exitDy=0;entryX=0;entryY=0;entryDx=0;entryDy=0;curved=1;endArrow=none;endFill=0;" edge="1" parent="1" source="sS0rDAeBFz1sruWQkqxE-28" target="sS0rDAeBFz1sruWQkqxE-27">
          <mxGeometry relative="1" as="geometry" />
        </mxCell>
        <mxCell id="sS0rDAeBFz1sruWQkqxE-28" value="Warehouse" style="ellipse;whiteSpace=wrap;html=1;align=center;" vertex="1" parent="1">
          <mxGeometry x="80" y="210" width="100" height="40" as="geometry" />
        </mxCell>
        <mxCell id="sS0rDAeBFz1sruWQkqxE-34" style="edgeStyle=orthogonalEdgeStyle;rounded=0;orthogonalLoop=1;jettySize=auto;html=1;exitX=1;exitY=0.5;exitDx=0;exitDy=0;entryX=0;entryY=0;entryDx=0;entryDy=0;endArrow=none;endFill=0;curved=1;" edge="1" parent="1" source="sS0rDAeBFz1sruWQkqxE-30" target="sS0rDAeBFz1sruWQkqxE-28">
          <mxGeometry relative="1" as="geometry" />
        </mxCell>
        <mxCell id="sS0rDAeBFz1sruWQkqxE-30" value="Area" style="ellipse;whiteSpace=wrap;html=1;align=center;fontStyle=4;" vertex="1" parent="1">
          <mxGeometry x="-30" y="170" width="100" height="40" as="geometry" />
        </mxCell>
        <mxCell id="sS0rDAeBFz1sruWQkqxE-31" value="Type item" style="ellipse;whiteSpace=wrap;html=1;align=center;" vertex="1" parent="1">
          <mxGeometry x="-30" y="230" width="100" height="40" as="geometry" />
        </mxCell>
        <mxCell id="sS0rDAeBFz1sruWQkqxE-32" style="edgeStyle=orthogonalEdgeStyle;rounded=0;orthogonalLoop=1;jettySize=auto;html=1;exitX=1;exitY=0;exitDx=0;exitDy=0;entryX=0.419;entryY=0.962;entryDx=0;entryDy=0;entryPerimeter=0;endArrow=ERoneToMany;endFill=0;curved=1;" edge="1" parent="1" source="sS0rDAeBFz1sruWQkqxE-27" target="sS0rDAeBFz1sruWQkqxE-4">
          <mxGeometry relative="1" as="geometry" />
        </mxCell>
        <mxCell id="sS0rDAeBFz1sruWQkqxE-35" style="edgeStyle=orthogonalEdgeStyle;rounded=0;orthogonalLoop=1;jettySize=auto;html=1;exitX=1;exitY=0.5;exitDx=0;exitDy=0;entryX=0.343;entryY=0.952;entryDx=0;entryDy=0;entryPerimeter=0;endArrow=none;endFill=0;" edge="1" parent="1" source="sS0rDAeBFz1sruWQkqxE-31" target="sS0rDAeBFz1sruWQkqxE-28">
          <mxGeometry relative="1" as="geometry" />
        </mxCell>
        <mxCell id="sS0rDAeBFz1sruWQkqxE-44" style="edgeStyle=orthogonalEdgeStyle;rounded=0;orthogonalLoop=1;jettySize=auto;html=1;exitX=0.75;exitY=1;exitDx=0;exitDy=0;entryX=0;entryY=0;entryDx=0;entryDy=0;endArrow=none;endFill=0;curved=1;" edge="1" parent="1" source="sS0rDAeBFz1sruWQkqxE-37" target="sS0rDAeBFz1sruWQkqxE-38">
          <mxGeometry relative="1" as="geometry" />
        </mxCell>
        <mxCell id="sS0rDAeBFz1sruWQkqxE-37" value="Stores" style="whiteSpace=wrap;html=1;align=center;fillColor=#008a00;fontColor=#ffffff;strokeColor=#005700;" vertex="1" parent="1">
          <mxGeometry x="350" y="-110" width="100" height="40" as="geometry" />
        </mxCell>
        <mxCell id="sS0rDAeBFz1sruWQkqxE-38" value="Have" style="shape=rhombus;perimeter=rhombusPerimeter;whiteSpace=wrap;html=1;align=center;fillColor=#d5e8d4;strokeColor=#82b366;" vertex="1" parent="1">
          <mxGeometry x="440" y="-50" width="120" height="60" as="geometry" />
        </mxCell>
        <mxCell id="sS0rDAeBFz1sruWQkqxE-42" style="edgeStyle=orthogonalEdgeStyle;rounded=0;orthogonalLoop=1;jettySize=auto;html=1;exitX=0.5;exitY=0;exitDx=0;exitDy=0;entryX=1;entryY=0.5;entryDx=0;entryDy=0;endArrow=ERoneToMany;endFill=0;curved=1;startArrow=none;startFill=0;" edge="1" parent="1" source="sS0rDAeBFz1sruWQkqxE-40" target="sS0rDAeBFz1sruWQkqxE-37">
          <mxGeometry relative="1" as="geometry" />
        </mxCell>
        <mxCell id="sS0rDAeBFz1sruWQkqxE-40" value="Import" style="shape=rhombus;perimeter=rhombusPerimeter;whiteSpace=wrap;html=1;align=center;fillColor=#d5e8d4;strokeColor=#82b366;" vertex="1" parent="1">
          <mxGeometry x="607" width="120" height="60" as="geometry" />
        </mxCell>
        <mxCell id="sS0rDAeBFz1sruWQkqxE-43" style="edgeStyle=orthogonalEdgeStyle;rounded=0;orthogonalLoop=1;jettySize=auto;html=1;exitX=0.75;exitY=0;exitDx=0;exitDy=0;entryX=0.135;entryY=0.713;entryDx=0;entryDy=0;entryPerimeter=0;endArrow=none;endFill=0;curved=1;" edge="1" parent="1" source="sS0rDAeBFz1sruWQkqxE-1" target="sS0rDAeBFz1sruWQkqxE-38">
          <mxGeometry relative="1" as="geometry" />
        </mxCell>
        <mxCell id="sS0rDAeBFz1sruWQkqxE-49" style="edgeStyle=orthogonalEdgeStyle;rounded=0;orthogonalLoop=1;jettySize=auto;html=1;exitX=0;exitY=1;exitDx=0;exitDy=0;entryX=1;entryY=0.25;entryDx=0;entryDy=0;endArrow=none;endFill=0;" edge="1" parent="1" source="sS0rDAeBFz1sruWQkqxE-45" target="sS0rDAeBFz1sruWQkqxE-37">
          <mxGeometry relative="1" as="geometry" />
        </mxCell>
        <mxCell id="sS0rDAeBFz1sruWQkqxE-45" value="Code" style="ellipse;whiteSpace=wrap;html=1;align=center;fontStyle=4;" vertex="1" parent="1">
          <mxGeometry x="490" y="-160" width="100" height="40" as="geometry" />
        </mxCell>
        <mxCell id="sS0rDAeBFz1sruWQkqxE-50" style="edgeStyle=orthogonalEdgeStyle;rounded=0;orthogonalLoop=1;jettySize=auto;html=1;exitX=0.5;exitY=1;exitDx=0;exitDy=0;entryX=0.75;entryY=0;entryDx=0;entryDy=0;endArrow=none;endFill=0;" edge="1" parent="1" source="sS0rDAeBFz1sruWQkqxE-46" target="sS0rDAeBFz1sruWQkqxE-37">
          <mxGeometry relative="1" as="geometry" />
        </mxCell>
        <mxCell id="sS0rDAeBFz1sruWQkqxE-46" value="Name" style="ellipse;whiteSpace=wrap;html=1;align=center;" vertex="1" parent="1">
          <mxGeometry x="380" y="-160" width="100" height="40" as="geometry" />
        </mxCell>
        <mxCell id="sS0rDAeBFz1sruWQkqxE-47" value="Address" style="ellipse;whiteSpace=wrap;html=1;align=center;" vertex="1" parent="1">
          <mxGeometry x="270" y="-160" width="100" height="40" as="geometry" />
        </mxCell>
        <mxCell id="sS0rDAeBFz1sruWQkqxE-52" style="edgeStyle=orthogonalEdgeStyle;rounded=0;orthogonalLoop=1;jettySize=auto;html=1;exitX=1;exitY=1;exitDx=0;exitDy=0;entryX=0;entryY=0.5;entryDx=0;entryDy=0;endArrow=none;endFill=0;curved=1;" edge="1" parent="1" source="sS0rDAeBFz1sruWQkqxE-48" target="sS0rDAeBFz1sruWQkqxE-37">
          <mxGeometry relative="1" as="geometry" />
        </mxCell>
        <mxCell id="sS0rDAeBFz1sruWQkqxE-48" value="Phone" style="ellipse;whiteSpace=wrap;html=1;align=center;" vertex="1" parent="1">
          <mxGeometry x="160" y="-160" width="100" height="40" as="geometry" />
        </mxCell>
        <mxCell id="sS0rDAeBFz1sruWQkqxE-51" style="edgeStyle=orthogonalEdgeStyle;rounded=0;orthogonalLoop=1;jettySize=auto;html=1;exitX=1;exitY=1;exitDx=0;exitDy=0;entryX=0.168;entryY=0.041;entryDx=0;entryDy=0;entryPerimeter=0;endArrow=none;endFill=0;" edge="1" parent="1" source="sS0rDAeBFz1sruWQkqxE-47" target="sS0rDAeBFz1sruWQkqxE-37">
          <mxGeometry relative="1" as="geometry" />
        </mxCell>
        <mxCell id="sS0rDAeBFz1sruWQkqxE-57" style="edgeStyle=orthogonalEdgeStyle;rounded=0;orthogonalLoop=1;jettySize=auto;html=1;exitX=1;exitY=1;exitDx=0;exitDy=0;endArrow=ERoneToMany;endFill=0;" edge="1" parent="1" source="sS0rDAeBFz1sruWQkqxE-53" target="sS0rDAeBFz1sruWQkqxE-56">
          <mxGeometry relative="1" as="geometry" />
        </mxCell>
        <mxCell id="sS0rDAeBFz1sruWQkqxE-53" value="Provide" style="shape=rhombus;perimeter=rhombusPerimeter;whiteSpace=wrap;html=1;align=center;fillColor=#d5e8d4;strokeColor=#82b366;" vertex="1" parent="1">
          <mxGeometry x="330" y="290" width="120" height="60" as="geometry" />
        </mxCell>
        <mxCell id="sS0rDAeBFz1sruWQkqxE-54" style="edgeStyle=orthogonalEdgeStyle;rounded=0;orthogonalLoop=1;jettySize=auto;html=1;exitX=0.75;exitY=1;exitDx=0;exitDy=0;entryX=0.668;entryY=0.21;entryDx=0;entryDy=0;entryPerimeter=0;startArrow=ERoneToMany;startFill=0;endArrow=none;endFill=0;curved=1;" edge="1" parent="1" source="sS0rDAeBFz1sruWQkqxE-4" target="sS0rDAeBFz1sruWQkqxE-53">
          <mxGeometry relative="1" as="geometry" />
        </mxCell>
        <mxCell id="sS0rDAeBFz1sruWQkqxE-61" style="edgeStyle=orthogonalEdgeStyle;rounded=0;orthogonalLoop=1;jettySize=auto;html=1;exitX=1;exitY=0.5;exitDx=0;exitDy=0;endArrow=none;endFill=0;" edge="1" parent="1" source="sS0rDAeBFz1sruWQkqxE-56" target="sS0rDAeBFz1sruWQkqxE-58">
          <mxGeometry relative="1" as="geometry" />
        </mxCell>
        <mxCell id="sS0rDAeBFz1sruWQkqxE-67" style="edgeStyle=orthogonalEdgeStyle;rounded=0;orthogonalLoop=1;jettySize=auto;html=1;exitX=1;exitY=0;exitDx=0;exitDy=0;endArrow=none;endFill=0;" edge="1" parent="1" source="sS0rDAeBFz1sruWQkqxE-56" target="sS0rDAeBFz1sruWQkqxE-66">
          <mxGeometry relative="1" as="geometry" />
        </mxCell>
        <mxCell id="sS0rDAeBFz1sruWQkqxE-68" style="edgeStyle=orthogonalEdgeStyle;rounded=0;orthogonalLoop=1;jettySize=auto;html=1;exitX=0.5;exitY=1;exitDx=0;exitDy=0;entryX=1;entryY=0;entryDx=0;entryDy=0;endArrow=none;endFill=0;" edge="1" parent="1" source="sS0rDAeBFz1sruWQkqxE-56" target="sS0rDAeBFz1sruWQkqxE-63">
          <mxGeometry relative="1" as="geometry" />
        </mxCell>
        <mxCell id="sS0rDAeBFz1sruWQkqxE-56" value="&lt;span style=&quot;border-bottom: 1px dotted&quot;&gt;Export Bill&lt;/span&gt;" style="ellipse;whiteSpace=wrap;html=1;align=center;fillColor=#008a00;fontColor=#ffffff;strokeColor=#005700;" vertex="1" parent="1">
          <mxGeometry x="340" y="400" width="100" height="40" as="geometry" />
        </mxCell>
        <mxCell id="sS0rDAeBFz1sruWQkqxE-58" value="Code" style="ellipse;whiteSpace=wrap;html=1;align=center;fontStyle=4;" vertex="1" parent="1">
          <mxGeometry x="490" y="440" width="100" height="40" as="geometry" />
        </mxCell>
        <mxCell id="sS0rDAeBFz1sruWQkqxE-59" value="Date_of_delivery" style="ellipse;whiteSpace=wrap;html=1;align=center;" vertex="1" parent="1">
          <mxGeometry x="440" y="490" width="100" height="40" as="geometry" />
        </mxCell>
        <mxCell id="sS0rDAeBFz1sruWQkqxE-62" style="edgeStyle=orthogonalEdgeStyle;rounded=0;orthogonalLoop=1;jettySize=auto;html=1;exitX=1;exitY=1;exitDx=0;exitDy=0;entryX=0.28;entryY=0.104;entryDx=0;entryDy=0;entryPerimeter=0;endArrow=none;endFill=0;curved=1;" edge="1" parent="1" source="sS0rDAeBFz1sruWQkqxE-56" target="sS0rDAeBFz1sruWQkqxE-59">
          <mxGeometry relative="1" as="geometry" />
        </mxCell>
        <mxCell id="sS0rDAeBFz1sruWQkqxE-63" value="Name" style="ellipse;whiteSpace=wrap;html=1;align=center;" vertex="1" parent="1">
          <mxGeometry x="310" y="480" width="100" height="40" as="geometry" />
        </mxCell>
        <mxCell id="sS0rDAeBFz1sruWQkqxE-64" value="Quantity" style="ellipse;whiteSpace=wrap;html=1;align=center;" vertex="1" parent="1">
          <mxGeometry x="200" y="470" width="100" height="40" as="geometry" />
        </mxCell>
        <mxCell id="sS0rDAeBFz1sruWQkqxE-65" value="Unit_price" style="ellipse;whiteSpace=wrap;html=1;align=center;" vertex="1" parent="1">
          <mxGeometry x="200" y="410" width="100" height="40" as="geometry" />
        </mxCell>
        <mxCell id="sS0rDAeBFz1sruWQkqxE-66" value="Cash" style="ellipse;whiteSpace=wrap;html=1;align=center;" vertex="1" parent="1">
          <mxGeometry x="490" y="380" width="100" height="40" as="geometry" />
        </mxCell>
        <mxCell id="sS0rDAeBFz1sruWQkqxE-69" style="edgeStyle=orthogonalEdgeStyle;rounded=0;orthogonalLoop=1;jettySize=auto;html=1;exitX=0;exitY=1;exitDx=0;exitDy=0;entryX=1.015;entryY=0.325;entryDx=0;entryDy=0;entryPerimeter=0;endArrow=none;endFill=0;curved=1;" edge="1" parent="1" source="sS0rDAeBFz1sruWQkqxE-56" target="sS0rDAeBFz1sruWQkqxE-64">
          <mxGeometry relative="1" as="geometry" />
        </mxCell>
        <mxCell id="sS0rDAeBFz1sruWQkqxE-70" style="edgeStyle=orthogonalEdgeStyle;rounded=0;orthogonalLoop=1;jettySize=auto;html=1;exitX=0;exitY=0.5;exitDx=0;exitDy=0;entryX=0.963;entryY=0.315;entryDx=0;entryDy=0;entryPerimeter=0;endArrow=none;endFill=0;" edge="1" parent="1" source="sS0rDAeBFz1sruWQkqxE-56" target="sS0rDAeBFz1sruWQkqxE-65">
          <mxGeometry relative="1" as="geometry" />
        </mxCell>
      </root>
    </mxGraphModel>
  </diagram>
</mxfile>
